<?xml version="1.0" standalone="no"?>
<!DOCTYPE svg PUBLIC "-//W3C//DTD SVG 20010904//EN"
 "http://www.w3.org/TR/2001/REC-SVG-20010904/DTD/svg10.dtd">
<svg version="1.0" xmlns="http://www.w3.org/2000/svg"
 width="413.000000pt" height="413.000000pt" viewBox="0 0 413.000000 413.000000"
 preserveAspectRatio="xMidYMid meet">
<metadata>
Created by potrace 1.11, written by Peter Selinger 2001-2013
</metadata>
<g transform="translate(0.000000,413.000000) scale(0.100000,-0.100000)"
fill="#000000" stroke="none">
<path d="M2014 3914 c-53 -34 -81 -82 -144 -239 -28 -71 -55 -139 -60 -150
-20 -44 -254 -623 -322 -795 -27 -69 -58 -144 -69 -167 -10 -24 -19 -46 -19
-49 0 -3 -6 -20 -14 -37 -8 -18 -31 -70 -51 -117 -72 -168 -164 -324 -234
-397 -38 -40 -106 -81 -161 -97 -133 -40 -261 2 -326 106 -40 63 -53 119 -50
221 5 142 56 258 164 371 48 50 155 126 178 126 7 0 14 4 16 8 9 22 210 73
346 87 100 11 157 32 191 70 37 43 45 71 37 130 -10 61 -59 110 -134 131 -43
13 -79 15 -152 11 -52 -4 -106 -9 -120 -12 -14 -3 -41 -8 -60 -11 -55 -10
-199 -63 -275 -101 -272 -136 -465 -363 -536 -629 -31 -116 -35 -293 -9 -403
57 -237 233 -405 470 -450 137 -25 326 0 460 62 103 48 253 180 329 291 75
109 205 402 453 1026 27 69 56 139 63 155 7 17 30 72 51 124 l37 94 28 -110
c30 -125 46 -155 94 -177 84 -40 145 -6 325 184 74 78 138 147 142 154 21 31
-12 -55 -72 -189 -10 -22 -30 -69 -45 -105 -15 -36 -36 -85 -47 -110 -11 -25
-26 -58 -33 -75 -51 -120 -109 -255 -121 -283 -32 -69 -55 -149 -61 -205 -4
-48 -1 -66 20 -110 48 -98 123 -126 364 -136 l142 -6 -14 -30 c-16 -35 -98
-232 -162 -390 -24 -60 -50 -123 -57 -140 -8 -16 -47 -112 -87 -212 l-74 -183
-280 -1 c-154 0 -289 -2 -300 -4 -11 -1 -41 -5 -67 -9 -55 -6 -157 -41 -207
-69 -87 -49 -175 -159 -213 -265 -38 -109 -30 -285 18 -382 57 -114 163 -205
295 -251 83 -30 280 -33 376 -7 174 48 345 173 448 328 42 63 165 309 165 330
0 7 167 10 518 11 284 0 530 3 546 5 62 10 152 77 158 117 7 58 3 115 -10 135
-37 57 -34 57 -574 60 -274 2 -498 6 -498 9 0 10 382 937 389 945 3 4 58 8
121 9 319 5 537 126 617 344 22 59 26 202 7 265 -34 114 -111 201 -224 253
-53 24 -81 30 -155 33 -188 7 -325 -63 -441 -226 -55 -78 -62 -91 -115 -220
l-48 -115 -135 -3 c-75 -1 -136 0 -136 2 0 5 49 127 385 956 140 347 150 383
120 439 -52 102 -185 128 -305 59 -46 -26 -337 -300 -463 -435 -37 -40 -45
-41 -53 -5 -54 232 -114 408 -152 442 -52 47 -129 52 -188 14z m1551 -1226
c39 -34 45 -110 13 -158 -40 -58 -106 -92 -193 -98 -41 -2 -75 -1 -75 3 0 4 6
21 14 38 84 198 114 235 188 236 15 1 39 -9 53 -21z m-1285 -1867 c0 -16 -68
-130 -107 -179 -136 -174 -332 -223 -443 -112 -63 63 -66 174 -5 234 54 55
103 64 343 65 126 1 212 -2 212 -8z"/>
</g>
</svg>
