<?xml version="1.0" encoding="iso-8859-1"?>
<!-- Generator: Adobe Illustrator 19.0.0, SVG Export Plug-In . SVG Version: 6.00 Build 0)  -->
<svg version="1.1" id="Layer_1" xmlns="http://www.w3.org/2000/svg" xmlns:xlink="http://www.w3.org/1999/xlink" x="0px" y="0px"
	 viewBox="0 0 495 495" style="enable-background:new 0 0 495 495;" xml:space="preserve">
<g>
	<polygon style="fill:#003F8A;" points="247.5,0 247.5,40 455,40 455,455 247.5,455 247.5,495 495,495 495,0 	"/>
	<polygon style="fill:#004FAC;" points="40,455 40,40 247.5,40 247.5,0 0,0 0,495 247.5,495 247.5,455 	"/>
	<path style="fill:#004FAC;" d="M388.739,204.638c-12.39,57.986-58.651,92.081-113.955,92.081H216.95l-19.806,92.951h-68.001
		L125.779,405h80.938l19.823-92.934h57.816c55.3,0,101.579-34.112,113.969-92.098c6.532-30.555-0.271-53.253-13.379-68.906
		C391.232,165.18,393.389,182.899,388.739,204.638z"/>
	<path style="fill:#004FAC;" d="M194.922,277.561h57.816c55.322,0,101.565-34.112,113.973-92.098
		C380.724,119.82,333.64,90,293.206,90H155.276L94.161,370.512h80.937L194.922,277.561z M290.712,185.48
		c-4.821,20.816-24.609,37.428-44.761,38.216l9.485-42.079h35.923C291.154,182.899,291.071,184.15,290.712,185.48z M223.823,147.116
		h39.629c13.606,0,23.892,8.098,27.278,19.994c-1.728-0.306-3.334-0.818-5.233-0.818h-39.646l-12.989,57.557h-26.385
		L223.823,147.116z"/>
</g>
<g>
</g>
<g>
</g>
<g>
</g>
<g>
</g>
<g>
</g>
<g>
</g>
<g>
</g>
<g>
</g>
<g>
</g>
<g>
</g>
<g>
</g>
<g>
</g>
<g>
</g>
<g>
</g>
<g>
</g>
</svg>
