<?xml version="1.0" encoding="iso-8859-1"?>
<!-- Generator: Adobe Illustrator 19.0.0, SVG Export Plug-In . SVG Version: 6.00 Build 0)  -->
<svg xmlns="http://www.w3.org/2000/svg" xmlns:xlink="http://www.w3.org/1999/xlink" version="1.1" id="Layer_1" x="0px" y="0px" viewBox="0 0 512 512" style="enable-background:new 0 0 512 512;" xml:space="preserve" width="512px" height="512px">
<g>
	<g>
		<path d="M511.74,280.943L455.318,36.471c-1.069-4.627-5.189-7.905-9.938-7.905h-84.433V14.85c0-5.632-4.567-10.199-10.199-10.199    H161.253c-5.632,0-10.199,4.567-10.199,10.199v13.716H66.621c-4.749,0-8.869,3.278-9.938,7.905L0.261,280.943    C0.086,281.703,0,282.472,0,283.237V497.15c0,5.632,4.567,10.199,10.199,10.199h491.602c5.632,0,10.199-4.567,10.199-10.199    V283.237C512,282.472,511.914,281.703,511.74,280.943z M360.946,48.964h76.32l51.715,224.073h-67.872V131.771    c0-5.632-4.567-10.199-10.199-10.199h-20.592V73.31c0-5.632-4.567-10.199-10.199-10.199h-19.172V48.964z M175.381,216.27    c0.003,0,0.006,0,0.009,0c2.705,0,5.298-1.075,7.212-2.987c1.914-1.915,2.99-4.513,2.987-7.221l-0.059-64.092h215.18v131.068    H111.29v-56.827L175.381,216.27z M125.695,195.826l39.451-39.451l0.037,39.487L125.695,195.826z M171.453,25.049h169.095v38.061    H171.453V25.049z M369.918,83.509v38.062H175.325c-2.705,0-5.298,1.075-7.212,2.987l-26.031,26.031V83.509H369.918z     M74.735,48.964h76.32v14.146h-19.172c-5.632,0-10.199,4.567-10.199,10.199v97.679l-27.805,27.805    c-1.912,1.913-2.987,4.507-2.987,7.212v67.032H23.02L74.735,48.964z M491.602,486.951H20.398V293.436h471.203V486.951z" fill="#6a1b9a"/>
	</g>
</g>
<g>
	<g>
		<path d="M256,343.336c-26.937,0-48.851,21.914-48.851,48.851c0,26.937,21.914,48.852,48.851,48.852s48.851-21.914,48.851-48.851    S282.937,343.336,256,343.336z M256,420.641c-15.689,0-28.453-12.764-28.453-28.453s12.763-28.454,28.453-28.454    s28.453,12.764,28.453,28.453C284.453,407.875,271.689,420.641,256,420.641z" fill="#6a1b9a"/>
	</g>
</g>
<g>
	<g>
		<path d="M355.442,235.602h-3.57c-5.632,0-10.199,4.567-10.199,10.199c0,5.632,4.567,10.199,10.199,10.199h3.57    c5.632,0,10.199-4.567,10.199-10.199C365.641,240.169,361.074,235.602,355.442,235.602z" fill="#6a1b9a"/>
	</g>
</g>
<g>
	<g>
		<path d="M317.195,235.602H156.558c-5.632,0-10.199,4.567-10.199,10.199c0,5.632,4.567,10.199,10.199,10.199h160.637    c5.632,0,10.199-4.567,10.199-10.199C327.394,240.169,322.827,235.602,317.195,235.602z" fill="#6a1b9a"/>
	</g>
</g>
<g>
</g>
<g>
</g>
<g>
</g>
<g>
</g>
<g>
</g>
<g>
</g>
<g>
</g>
<g>
</g>
<g>
</g>
<g>
</g>
<g>
</g>
<g>
</g>
<g>
</g>
<g>
</g>
<g>
</g>
</svg>
