<?xml version="1.0" encoding="iso-8859-1"?>
<!-- Generator: Adobe Illustrator 19.0.0, SVG Export Plug-In . SVG Version: 6.00 Build 0)  -->
<svg xmlns="http://www.w3.org/2000/svg" xmlns:xlink="http://www.w3.org/1999/xlink" version="1.1" id="Capa_1" x="0px" y="0px" viewBox="0 0 512 512" style="enable-background:new 0 0 512 512;" xml:space="preserve" width="512px" height="512px">
<g>
	<g>
		<path d="M469.333,59.733H324.267c-29.687,0-55.484,16.93-68.267,41.634c-12.783-24.704-38.579-41.634-68.267-41.634H42.667    c-4.71,0-8.533,3.823-8.533,8.533v307.2c0,4.719,3.823,8.533,8.533,8.533h145.067c32.939,0,59.733,26.803,59.733,59.733    c0,4.719,3.823,8.533,8.533,8.533c4.719,0,8.533-3.814,8.533-8.533c0-32.93,26.803-59.733,59.733-59.733h145.067    c4.719,0,8.533-3.814,8.533-8.533v-307.2C477.867,63.556,474.052,59.733,469.333,59.733z M460.8,366.933H324.267    c-29.687,0-55.484,16.922-68.267,41.634c-12.783-24.713-38.579-41.634-68.267-41.634H51.2V76.8h136.533    c32.939,0,59.733,26.795,59.733,59.733c0,4.71,3.823,8.533,8.533,8.533c4.719,0,8.533-3.823,8.533-8.533    c0-32.939,26.803-59.733,59.733-59.733H460.8V366.933z" fill="#919191"/>
	</g>
</g>
<g>
	<g>
		<path d="M503.467,110.933h-34.133V128h25.6v307.2H17.067V128h25.6v-17.067H8.533c-4.71,0-8.533,3.823-8.533,8.533v324.267    c0,4.719,3.823,8.533,8.533,8.533h494.933c4.719,0,8.533-3.814,8.533-8.533V119.467C512,114.756,508.186,110.933,503.467,110.933z    " fill="#919191"/>
	</g>
</g>
<g>
	<g>
		<path d="M187.733,401.067H51.2v-25.6H34.133V409.6c0,4.719,3.823,8.533,8.533,8.533h145.067c24.038,0,47.01,11.486,61.44,30.729    l13.653-10.257C245.188,415.104,217.114,401.067,187.733,401.067z" fill="#919191"/>
	</g>
</g>
<g>
	<g>
		<rect x="247.467" y="136.533" width="17.067" height="290.133" fill="#919191"/>
	</g>
</g>
<g>
	<g>
		<path d="M460.8,375.467v25.6H324.267c-29.38,0-57.455,14.037-75.093,37.547l13.653,10.249    c14.43-19.243,37.402-30.729,61.44-30.729h145.067c4.719,0,8.533-3.814,8.533-8.533v-34.133H460.8z" fill="#919191"/>
	</g>
</g>
<g>
	<g>
		<rect x="76.8" y="110.933" width="85.333" height="17.067" fill="#919191"/>
	</g>
</g>
<g>
	<g>
		<rect x="128" y="153.6" width="85.333" height="17.067" fill="#919191"/>
	</g>
</g>
<g>
	<g>
		<rect x="76.8" y="153.6" width="34.133" height="17.067" fill="#919191"/>
	</g>
</g>
<g>
	<g>
		<rect x="76.8" y="196.267" width="136.533" height="17.067" fill="#919191"/>
	</g>
</g>
<g>
	<g>
		<rect x="76.8" y="281.6" width="136.533" height="17.067" fill="#919191"/>
	</g>
</g>
<g>
	<g>
		<rect x="76.8" y="324.267" width="136.533" height="17.067" fill="#919191"/>
	</g>
</g>
<g>
	<g>
		<rect x="179.2" y="110.933" width="34.133" height="17.067" fill="#919191"/>
	</g>
</g>
<g>
	<g>
		<rect x="76.8" y="238.933" width="85.333" height="17.067" fill="#919191"/>
	</g>
</g>
<g>
	<g>
		<rect x="179.2" y="238.933" width="34.133" height="17.067" fill="#919191"/>
	</g>
</g>
<g>
	<g>
		<rect x="349.867" y="324.267" width="85.333" height="17.067" fill="#919191"/>
	</g>
</g>
<g>
	<g>
		<rect x="298.667" y="281.6" width="85.333" height="17.067" fill="#919191"/>
	</g>
</g>
<g>
	<g>
		<rect x="401.067" y="281.6" width="34.133" height="17.067" fill="#919191"/>
	</g>
</g>
<g>
	<g>
		<rect x="298.667" y="238.933" width="136.533" height="17.067" fill="#919191"/>
	</g>
</g>
<g>
	<g>
		<rect x="298.667" y="153.6" width="136.533" height="17.067" fill="#919191"/>
	</g>
</g>
<g>
	<g>
		<rect x="298.667" y="324.267" width="34.133" height="17.067" fill="#919191"/>
	</g>
</g>
<g>
	<g>
		<rect x="349.867" y="196.267" width="85.333" height="17.067" fill="#919191"/>
	</g>
</g>
<g>
	<g>
		<rect x="298.667" y="196.267" width="34.133" height="17.067" fill="#919191"/>
	</g>
</g>
<g>
	<g>
		<rect x="384" y="110.933" width="51.2" height="17.067" fill="#919191"/>
	</g>
</g>
<g>
	<g>
		<rect x="298.667" y="110.933" width="68.267" height="17.067" fill="#919191"/>
	</g>
</g>
<g>
</g>
<g>
</g>
<g>
</g>
<g>
</g>
<g>
</g>
<g>
</g>
<g>
</g>
<g>
</g>
<g>
</g>
<g>
</g>
<g>
</g>
<g>
</g>
<g>
</g>
<g>
</g>
<g>
</g>
</svg>
