<?xml version="1.0" encoding="iso-8859-1"?>
<!-- Generator: Adobe Illustrator 19.0.0, SVG Export Plug-In . SVG Version: 6.00 Build 0)  -->
<svg xmlns="http://www.w3.org/2000/svg" xmlns:xlink="http://www.w3.org/1999/xlink" version="1.1" id="Capa_1" x="0px" y="0px" viewBox="0 0 512 512" style="enable-background:new 0 0 512 512;" xml:space="preserve" width="512px" height="512px">
<g>
	<g>
		<path d="M261.013,196.267c-32.939,0-59.733,26.795-59.733,59.733c0,32.93,26.795,59.733,59.733,59.733    c32.93,0,59.733-26.803,59.733-59.733C320.747,223.061,293.944,196.267,261.013,196.267z M261.013,298.667    c-23.526,0-42.667-19.14-42.667-42.667c0-23.526,19.14-42.667,42.667-42.667c23.518,0,42.667,19.14,42.667,42.667    C303.68,279.526,284.54,298.667,261.013,298.667z" fill="#919191"/>
	</g>
</g>
<g>
	<g>
		<path d="M337.02,67.917l-15.479,7.177c21.188,45.747,33.34,111.676,33.34,180.907c0,129.519-42.982,238.933-93.867,238.933    c-50.876,0-93.867-109.414-93.867-238.933S210.129,17.067,260.51,17.058c14.336,0.853,27.614,7.834,36.437,19.166l13.466-10.487    C298.569,10.53,280.751,1.152,261.013,0C198.805,0,150.08,112.452,150.08,256s48.725,256,110.933,256s110.933-112.452,110.933-256    C371.947,183.322,359.548,116.531,337.02,67.917z" fill="#919191"/>
	</g>
</g>
<g>
	<g>
		<path d="M482.675,128c-15.505-26.871-53.649-37.743-107.46-30.626c-51.209,6.776-111.462,28.996-169.677,62.575    c-62.532,36.096-115.78,81.775-146.099,125.312l14.012,9.754c28.937-41.549,80.188-85.393,140.621-120.277    c56.32-32.486,114.347-53.948,163.388-60.442c45.815-6.05,78.788,2.039,90.436,22.238    c25.404,44.066-47.846,135.996-159.949,200.738c-56.294,32.521-114.313,53.99-163.379,60.476    c-45.807,6.05-78.788-2.065-90.223-21.879c-6.323-12.407-7.04-26.974-1.963-39.953l-15.889-6.221    c-6.852,17.502-5.888,37.154,2.859,54.306c12.407,21.513,39.322,32.785,77.158,32.785c9.429-0.009,19.55-0.708,30.285-2.133    c51.234-6.767,111.488-29.005,169.677-62.609C440.734,280.286,513.745,181.871,482.675,128z" fill="#919191"/>
	</g>
</g>
<g>
	<g>
		<path d="M455.522,275.601c-31.462-40.969-80.845-82.039-139.042-115.652C192.218,88.192,70.498,74.155,39.351,128    c-15.539,26.863-5.905,65.365,27.153,108.399c31.462,40.969,80.845,82.039,139.042,115.652    c63.01,36.429,129.63,59.75,182.784,64.009l1.357-17.024c-50.714-4.053-114.722-26.573-175.616-61.773    c-56.311-32.521-103.91-72.038-134.042-111.266c-28.151-36.651-37.598-69.257-25.907-89.464    c25.472-44.023,141.705-26.547,253.824,38.195c56.311,32.521,103.91,72.038,134.042,111.275    c28.151,36.651,37.598,69.256,26.112,89.148c-6.69,10.47-17.493,17.963-29.662,20.548l3.55,16.7    c16.614-3.533,31.369-13.764,40.687-28.39C498.214,357.137,488.572,318.635,455.522,275.601z" fill="#919191"/>
	</g>
</g>
<g>
	<g>
		<path d="M320.747,17.067c-18.825,0-34.133,15.309-34.133,34.133s15.309,34.133,34.133,34.133    c18.825,0,34.133-15.309,34.133-34.133S339.571,17.067,320.747,17.067z M320.747,68.267c-9.412,0-17.067-7.654-17.067-17.067    c0-9.412,7.654-17.067,17.067-17.067c9.404,0,17.067,7.654,17.067,17.067C337.813,60.612,330.159,68.267,320.747,68.267z" fill="#919191"/>
	</g>
</g>
<g>
	<g>
		<path d="M56.213,273.067c-18.825,0-34.133,15.309-34.133,34.133s15.309,34.133,34.133,34.133    c18.816,0,34.133-15.309,34.133-34.133S75.038,273.067,56.213,273.067z M56.213,324.267c-9.412,0-17.067-7.654-17.067-17.067    s7.654-17.067,17.067-17.067c9.412,0,17.067,7.654,17.067,17.067S65.626,324.267,56.213,324.267z" fill="#919191"/>
	</g>
</g>
<g>
	<g>
		<path d="M414.613,375.467c-18.825,0-34.133,15.309-34.133,34.133c0,18.825,15.309,34.133,34.133,34.133    s34.133-15.309,34.133-34.133C448.747,390.775,433.438,375.467,414.613,375.467z M414.613,426.667    c-9.412,0-17.067-7.654-17.067-17.067c0-9.412,7.654-17.067,17.067-17.067c9.404,0,17.067,7.654,17.067,17.067    C431.68,419.012,424.026,426.667,414.613,426.667z" fill="#919191"/>
	</g>
</g>
<g>
</g>
<g>
</g>
<g>
</g>
<g>
</g>
<g>
</g>
<g>
</g>
<g>
</g>
<g>
</g>
<g>
</g>
<g>
</g>
<g>
</g>
<g>
</g>
<g>
</g>
<g>
</g>
<g>
</g>
</svg>
