<?xml version="1.0" encoding="iso-8859-1"?>
<!-- Generator: Adobe Illustrator 19.0.0, SVG Export Plug-In . SVG Version: 6.00 Build 0)  -->
<svg xmlns="http://www.w3.org/2000/svg" xmlns:xlink="http://www.w3.org/1999/xlink" version="1.1" id="Capa_1" x="0px" y="0px" viewBox="0 0 512 512" style="enable-background:new 0 0 512 512;" xml:space="preserve" width="512px" height="512px">
<g>
	<g>
		<path d="M350.169,44.452L186.356,208.266l70.994,70.994l163.813-163.813L350.169,44.452z M257.341,255.393l-47.127-47.127    L350.161,68.311l47.135,47.127L257.341,255.393z" fill="#919191"/>
	</g>
</g>
<g>
	<g>
		<path d="M172.95,225.156v-16.873h-33.746c-4.657,0-8.437,3.78-8.437,8.437v33.746c0,4.665,3.78,8.437,8.437,8.437h33.746v-16.873    h-25.31v-16.873H172.95z" fill="#919191"/>
	</g>
</g>
<g>
	<g>
		<path d="M312.154,132.353c-11.634,0-21.091,9.466-21.091,21.091s9.457,21.091,21.091,21.091c11.634,0,21.091-9.466,21.091-21.091    S323.788,132.353,312.154,132.353z M312.154,157.663c-2.32,0-4.218-1.89-4.218-4.218s1.898-4.218,4.218-4.218    s4.218,1.89,4.218,4.218S314.474,157.663,312.154,157.663z" fill="#919191"/>
	</g>
</g>
<g>
	<g>
		<polygon points="392.302,36.058 361.027,67.332 372.957,79.262 392.302,59.917 405.682,73.297 386.337,92.642 398.266,104.572     429.541,73.297   " fill="#919191"/>
	</g>
</g>
<g>
	<g>
		<polygon points="406.863,0 384.751,44.216 399.852,51.758 411.486,28.482 437.117,54.112 413.84,65.746 421.383,80.848     465.599,58.736   " fill="#919191"/>
	</g>
</g>
<g>
	<g>
		<path d="M358.555,461.38H54.838c-4.657,0-8.437,3.771-8.437,8.437v33.746c0,4.665,3.78,8.437,8.437,8.437h303.717    c4.665,0,8.437-3.771,8.437-8.437v-33.746C366.992,465.152,363.221,461.38,358.555,461.38z M350.119,495.127H63.274v-16.873    h286.844V495.127z" fill="#919191"/>
	</g>
</g>
<g>
	<g>
		<path d="M349.132,465.852l-48.519-91.039c-12.824-23.943-41.685-34.801-67.088-25.268c-21.108,7.871-35.282,28.313-35.265,50.839    v69.433c0,4.665,3.78,8.437,8.437,8.437h134.986c2.97,0,5.72-1.561,7.239-4.092C350.439,471.631,350.524,468.476,349.132,465.852z     M215.133,461.38v-61.005c-0.008-15.515,9.753-29.596,24.306-35.029c17.54-6.614,37.45,0.894,46.283,17.413l41.905,78.621H215.133    z" fill="#919191"/>
	</g>
</g>
<g>
	<g>
		<path d="M223.57,377.015v-16.873H88.584c-4.657,0-8.437,3.771-8.437,8.437v33.746c0,4.665,3.78,8.437,8.437,8.437h118.112v-16.873    H97.021v-16.873H223.57z" fill="#919191"/>
	</g>
</g>
<g>
	<g>
		<path d="M377.841,153.715l-14.933,7.88c43.516,82.451,17.86,183.69-59.655,235.491l9.373,14.022    C397.355,354.506,425.39,243.843,377.841,153.715z" fill="#919191"/>
	</g>
</g>
<g>
	<g>
		<path d="M206.697,393.888h-67.493c-3.197,0-6.125,1.805-7.551,4.665c-1.426,2.86-1.122,6.277,0.801,8.833l25.31,33.746    c1.594,2.126,4.092,3.375,6.749,3.375h42.183v-16.873h-37.965l-12.655-16.873h50.62V393.888z" fill="#919191"/>
	</g>
</g>
<g>
	<g>
		<path d="M326.85,205.676l-16.046,5.214c15.329,47.211-1.367,98.514-41.542,127.646l-15.101,10.883l9.862,13.693l15.127-10.9    C325.273,318.751,344.449,259.864,326.85,205.676z" fill="#919191"/>
	</g>
</g>
<g>
	<g>
		<path d="M253.098,377.015c-11.626,0-21.091,9.457-21.091,21.091c0,11.634,9.466,21.091,21.091,21.091    c11.634,0,21.091-9.457,21.091-21.091C274.189,386.472,264.732,377.015,253.098,377.015z M253.098,402.324    c-2.328,0-4.218-1.898-4.218-4.218s1.89-4.218,4.218-4.218s4.218,1.898,4.218,4.218S255.426,402.324,253.098,402.324z" fill="#919191"/>
	</g>
</g>
<g>
	<g>
		<path d="M271.709,269.802l-75.929-75.929c-1.578-1.586-3.729-2.472-5.965-2.472c-2.236,0-4.379,0.886-5.965,2.472l-4.218,4.218    c-0.051,0.059-0.11,0.11-0.16,0.169c-11.651,11.718-18.063,27.276-18.054,43.803c0.017,16.595,6.479,32.177,18.215,43.896    c0.059,0.059,0.11,0.11,0.169,0.169c11.718,11.643,27.25,18.046,43.769,18.046c0.008,0,0.025,0,0.025-0.017    c16.586-0.008,32.177-6.471,43.896-18.206l4.218-4.218C275.008,278.433,275.008,273.101,271.709,269.802z M191.612,274.08    c-0.051-0.051-0.101-0.101-0.152-0.152c-16.966-17.067-17.497-44.393-1.586-62.102l63.907,63.907    C236.056,291.67,208.662,291.113,191.612,274.08z" fill="#919191"/>
	</g>
</g>
<g>
	<g>
		
			<rect x="219.383" y="160.253" transform="matrix(0.7071 -0.7071 0.7071 0.7071 -101.427 230.7447)" width="16.873" height="155.105" fill="#919191"/>
	</g>
</g>
<g>
	<g>
		<path d="M192.295,286.684l-19.345,19.345l-13.38-13.38l19.345-19.345l-11.929-11.929l-25.31,25.31    c-3.299,3.299-3.299,8.631,0,11.929l25.31,25.31c1.645,1.645,3.805,2.472,5.965,2.472c2.16,0,4.32-0.818,5.965-2.472l25.31-25.31    L192.295,286.684z" fill="#919191"/>
	</g>
</g>
<g>
	<g>
		<path d="M240.443,292.649v25.31H223.57v-25.31h-16.873v33.746c0,4.665,3.78,8.437,8.437,8.437h33.746    c4.657,0,8.437-3.771,8.437-8.437v-33.746H240.443z" fill="#919191"/>
	</g>
</g>
<g>
</g>
<g>
</g>
<g>
</g>
<g>
</g>
<g>
</g>
<g>
</g>
<g>
</g>
<g>
</g>
<g>
</g>
<g>
</g>
<g>
</g>
<g>
</g>
<g>
</g>
<g>
</g>
<g>
</g>
</svg>
