<?xml version="1.0" encoding="UTF-8" standalone="no"?>
<!-- Created with Inkscape (http://www.inkscape.org/) -->

<svg
   xmlns:dc="http://purl.org/dc/elements/1.1/"
   xmlns:cc="http://creativecommons.org/ns#"
   xmlns:rdf="http://www.w3.org/1999/02/22-rdf-syntax-ns#"
   xmlns:svg="http://www.w3.org/2000/svg"
   xmlns="http://www.w3.org/2000/svg"
   xmlns:sodipodi="http://sodipodi.sourceforge.net/DTD/sodipodi-0.dtd"
   xmlns:inkscape="http://www.inkscape.org/namespaces/inkscape"
   width="1920px"
   height="400px"
   viewBox="0 0 1920 400"
   version="1.1"
   id="SVGRoot"
   inkscape:version="0.92.2 (5c3e80d, 2017-08-06)"
   sodipodi:docname="vagues.svg">
  <sodipodi:namedview
     id="base"
     pagecolor="#ffffff"
     bordercolor="#666666"
     borderopacity="1.0"
     inkscape:pageopacity="0.0"
     inkscape:pageshadow="2"
     inkscape:zoom="0.35"
     inkscape:cx="895.07237"
     inkscape:cy="157.64677"
     inkscape:document-units="px"
     inkscape:current-layer="layer1"
     showgrid="false"
     inkscape:window-width="1366"
     inkscape:window-height="717"
     inkscape:window-x="0"
     inkscape:window-y="25"
     inkscape:window-maximized="1" />
  <defs
     id="defs1414" />
  <metadata
     id="metadata1417">
    <rdf:RDF>
      <cc:Work
         rdf:about="">
        <dc:format>image/svg+xml</dc:format>
        <dc:type
           rdf:resource="http://purl.org/dc/dcmitype/StillImage" />
        <dc:title></dc:title>
      </cc:Work>
    </rdf:RDF>
  </metadata>
  <g
     id="layer1"
     inkscape:groupmode="layer"
     inkscape:label="Calque 1">
    <path
       style="opacity:1;fill:#6a1b9a;fill-opacity:0.9921875;stroke:none;stroke-width:5.50956106;stroke-miterlimit:4;stroke-dasharray:none;stroke-opacity:1"
       d="M -6.8119675e-8,1.3623867e-7 H 1925.7142 c 0,0 80.3242,253.22010986376133 -2.8571,319.99998986376135 -93.2723,74.88109 -231.6012,-81.05043 -351.0295,-74.43336 -94.2959,5.22458 -174.5426,90.58467 -268.9703,89.02865 -88.1226,-1.45212 -160.0614,-88.08212 -248.1368,-91.30918 -98.17082,-3.59695 -185.04863,81.39394 -283.28523,81.26199 -91.1198,-0.1224 -171.44941,-77.4482 -262.55903,-76.08055 -93.16253,1.39847 -172.8729,88.05402 -266.0191,85.81816 C 156.383,332.21 49.223594,313.98465 -6.8119675e-8,242.85713 -46.067175,176.2906 -6.8119675e-8,1.3623867e-7 -6.8119675e-8,1.3623867e-7 Z"
       id="rect1973"
       inkscape:connector-curvature="0"
       sodipodi:nodetypes="ccaaaaaaaac" />
  </g>
</svg>
